<svg xmlns="http://www.w3.org/2000/svg" width="20" height="21" viewBox="0 0 20 21" fill="none">
  <path d="M17.0164 9.74072H4.74801L10.1079 4.38084C10.5362 3.95249 10.5362 3.24955 10.1079 2.8212C10.0063 2.71938 9.88559 2.6386 9.75272 2.58349C9.61985 2.52837 9.47741 2.5 9.33357 2.5C9.18972 2.5 9.04728 2.52837 8.91441 2.58349C8.78155 2.6386 8.66085 2.71938 8.55924 2.8212L1.3212 10.0592C1.21938 10.1609 1.1386 10.2815 1.08349 10.4144C1.02837 10.5473 1 10.6897 1 10.8336C1 10.9774 1.02837 11.1198 1.08349 11.2527C1.1386 11.3856 1.21938 11.5063 1.3212 11.6079L8.55924 18.8459C8.66093 18.9476 8.78164 19.0283 8.9145 19.0833C9.04736 19.1383 9.18976 19.1667 9.33357 19.1667C9.47737 19.1667 9.61977 19.1383 9.75263 19.0833C9.88549 19.0283 10.0062 18.9476 10.1079 18.8459C10.2096 18.7442 10.2902 18.6235 10.3453 18.4907C10.4003 18.3578 10.4286 18.2154 10.4286 18.0716C10.4286 17.9278 10.4003 17.7854 10.3453 17.6525C10.2902 17.5197 10.2096 17.399 10.1079 17.2973L4.74801 11.9374H17.0164C17.6205 11.9374 18.1148 11.4431 18.1148 10.8391C18.1148 10.235 17.6205 9.74072 17.0164 9.74072Z" fill="#090909"/>
</svg>