<svg xmlns="http://www.w3.org/2000/svg" width="71" height="71" viewBox="0 0 71 71" fill="none">
  <path d="M53.7503 38.4582H38.9587V53.2498C38.9587 54.0344 38.647 54.7869 38.0922 55.3417C37.5374 55.8965 36.7849 56.2082 36.0003 56.2082C35.2157 56.2082 34.4633 55.8965 33.9085 55.3417C33.3537 54.7869 33.042 54.0344 33.042 53.2498V38.4582H18.2503C17.4657 38.4582 16.7133 38.1465 16.1585 37.5917C15.6037 37.0369 15.292 36.2844 15.292 35.4998C15.292 34.7152 15.6037 33.9628 16.1585 33.408C16.7133 32.8532 17.4657 32.5415 18.2503 32.5415H33.042V17.7498C33.042 16.9652 33.3537 16.2128 33.9085 15.658C34.4633 15.1032 35.2157 14.7915 36.0003 14.7915C36.7849 14.7915 37.5374 15.1032 38.0922 15.658C38.647 16.2128 38.9587 16.9652 38.9587 17.7498V32.5415H53.7503C54.5349 32.5415 55.2874 32.8532 55.8422 33.408C56.397 33.9628 56.7087 34.7152 56.7087 35.4998C56.7087 36.2844 56.397 37.0369 55.8422 37.5917C55.2874 38.1465 54.5349 38.4582 53.7503 38.4582Z" fill="#0052CC"/>
</svg>