<svg width="22" height="22" viewBox="0 0 22 22" fill="none" xmlns="http://www.w3.org/2000/svg">
<path d="M11 0C8.08354 0.00290673 5.28734 1.16276 3.22508 3.22503C1.16281 5.28729 0.00295688 8.08349 5.01556e-05 11C-0.00433086 12.4453 0.278336 13.8771 0.831653 15.2123C1.38497 16.5476 2.19792 17.7596 3.22334 18.7782C4.24187 19.8032 5.45374 20.6157 6.78868 21.1688C8.12362 21.7218 9.55507 22.0043 11 21.9999C17.0655 21.9999 22 17.0654 22 10.9984C22 4.9314 17.067 0 11 0ZM5.13065 18.3767C5.83135 17.5543 6.69911 16.8904 7.67621 16.4293C8.65332 15.9682 9.71739 15.7204 10.7977 15.7024C10.8353 15.7039 10.8714 15.7134 10.9091 15.7134H10.9451C10.9796 15.7134 11.011 15.7039 11.0455 15.7024C12.1397 15.7218 13.2168 15.9774 14.203 16.4517C15.1892 16.926 16.0613 17.6078 16.7596 18.4504C15.1141 19.7341 13.087 20.4314 11 20.4314C8.8665 20.4359 6.79555 19.7109 5.13065 18.3767ZM7.79085 10.9906C7.79085 9.26991 9.18996 7.87236 10.9467 7.87236C12.6674 7.87236 14.0649 9.27147 14.0649 11.0282C14.0633 11.8366 13.7476 12.6127 13.1845 13.1928C12.6215 13.7728 11.8551 14.1114 11.0471 14.137C11.0016 14.137 10.9592 14.1292 10.9138 14.1292C10.8745 14.1292 10.8369 14.1354 10.7977 14.137C9.98617 14.1053 9.21878 13.7593 8.65769 13.1721C8.09659 12.585 7.78575 11.8027 7.79085 10.9906Z" fill="#3D3D3D"/>
</svg>
