<svg xmlns="http://www.w3.org/2000/svg" width="16" height="16" viewBox="0 0 16 16" fill="none">
  <path d="M12.0173 14.6667C11.4362 14.6667 10.62 14.4566 9.3977 13.7738C7.91138 12.9405 6.76174 12.1711 5.28346 10.697C3.85817 9.2729 3.16458 8.35086 2.19384 6.58477C1.09719 4.5907 1.28413 3.54545 1.49311 3.09872C1.74197 2.56478 2.1093 2.24543 2.5841 1.92847C2.85379 1.75181 3.13918 1.60037 3.43666 1.47608C3.46643 1.46328 3.49411 1.45108 3.51882 1.44007C3.66617 1.3737 3.88943 1.2734 4.17223 1.38054C4.36095 1.45138 4.52944 1.59632 4.79319 1.85674C5.33407 2.39008 6.07321 3.57789 6.34588 4.16123C6.52896 4.55439 6.65011 4.81392 6.65041 5.10499C6.65041 5.44577 6.47895 5.70857 6.27087 5.9922C6.23187 6.04548 6.19317 6.09637 6.15567 6.14578C5.92913 6.4434 5.87942 6.52941 5.91216 6.68299C5.97855 6.99162 6.47359 7.91038 7.28715 8.722C8.10071 9.53362 8.99315 9.99731 9.30304 10.0634C9.46319 10.0976 9.551 10.0458 9.85821 9.8113C9.90227 9.77767 9.94751 9.74285 9.99484 9.70802C10.3122 9.47201 10.5628 9.30504 10.8956 9.30504H10.8974C11.1871 9.30504 11.435 9.43064 11.8458 9.63778C12.3816 9.90803 13.6054 10.6375 14.1421 11.1789C14.4032 11.442 14.5488 11.6098 14.6199 11.7982C14.7271 12.0819 14.6261 12.3042 14.5604 12.453C14.5493 12.4777 14.5371 12.5048 14.5243 12.5348C14.399 12.8317 14.2467 13.1165 14.0692 13.3854C13.7528 13.8587 13.4322 14.225 12.8969 14.4742C12.6221 14.6041 12.3213 14.67 12.0173 14.6667Z" fill="#0052CC"/>
</svg>