<svg width="22" height="22" viewBox="0 0 22 22" fill="none" xmlns="http://www.w3.org/2000/svg">
<path d="M11 19.8275C10.395 19.8275 9.87726 19.6075 9.4468 19.1675C9.01633 18.7275 8.80073 18.205 8.8 17.6C8.79926 16.995 9.01486 16.4773 9.4468 16.0468C9.87873 15.6163 10.3965 15.4007 11 15.4L11.66 14.7675C11.8067 14.6208 11.9764 14.5064 12.1693 14.4243C12.3622 14.3422 12.5591 14.3007 12.76 14.3C13.1817 14.3 13.5439 14.4558 13.8468 14.7675C14.1497 15.0792 14.3007 15.4458 14.3 15.8675V16.335C14.3 16.7017 14.4192 17.0042 14.6575 17.2425C14.8958 17.4808 15.1983 17.6 15.565 17.6C15.84 17.6 16.0875 17.5175 16.3075 17.3525C16.5275 17.1875 16.6833 16.9767 16.775 16.72L17.105 15.8125C17.27 15.3725 17.5358 15.0106 17.9025 14.7268C18.2692 14.443 18.6908 14.3007 19.1675 14.3C19.3692 13.7867 19.5298 13.255 19.6493 12.705C19.7688 12.155 19.8282 11.5867 19.8275 11C19.8275 9.36833 19.4198 7.87893 18.6043 6.5318C17.7888 5.18467 16.7207 4.12573 15.4 3.355V4.4C15.4 5.005 15.1848 5.5231 14.7543 5.9543C14.3238 6.3855 13.8057 6.60073 13.2 6.6H12.1V8.8C12.1 9.11166 11.9944 9.3731 11.7832 9.5843C11.572 9.7955 11.3109 9.90073 11 9.9H9.9V11.77C9.9 12.1733 9.7625 12.5125 9.4875 12.7875C9.2125 13.0625 8.87333 13.2 8.47 13.2C8.21333 13.2 7.9794 13.145 7.7682 13.035C7.557 12.925 7.3876 12.7692 7.26 12.5675L5.5 9.9H4.4V11C4.4 11.5683 4.2075 12.0542 3.8225 12.4575C3.4375 12.8608 2.97917 13.0992 2.4475 13.1725C2.92417 15.0792 3.9556 16.665 5.5418 17.93C7.128 19.195 8.9474 19.8275 11 19.8275ZM13.2 13.2C12.8883 13.2 12.6273 13.0948 12.4168 12.8843C12.2063 12.6738 12.1007 12.4124 12.1 12.1C12.0993 11.7876 12.2049 11.5265 12.4168 11.3168C12.6287 11.1071 12.8898 11.0015 13.2 11H14.3C14.6117 11 14.8731 11.1056 15.0843 11.3168C15.2955 11.528 15.4007 11.7891 15.4 12.1C15.3993 12.4109 15.2937 12.6724 15.0832 12.8843C14.8727 13.0962 14.6117 13.2015 14.3 13.2H13.2ZM15.7575 9.9C15.3908 9.9 15.1019 9.7581 14.8907 9.4743C14.6795 9.1905 14.6293 8.87406 14.74 8.525L15.1525 7.315C15.2258 7.095 15.3542 6.92083 15.5375 6.7925C15.7208 6.66417 15.9225 6.6 16.1425 6.6C16.5092 6.6 16.7981 6.74226 17.0093 7.0268C17.2205 7.31133 17.2707 7.6274 17.16 7.975L16.7475 9.185C16.6742 9.405 16.5458 9.57916 16.3625 9.7075C16.1792 9.83583 15.9775 9.9 15.7575 9.9ZM11 22C9.47833 22 8.04833 21.7111 6.71 21.1332C5.37167 20.5553 4.2075 19.7718 3.2175 18.7825C2.2275 17.7932 1.44393 16.6291 0.866801 15.29C0.289668 13.9509 0.000734725 12.5209 1.3924e-06 11C-0.000731941 9.47906 0.288201 8.04906 0.866801 6.71C1.4454 5.37093 2.22897 4.20677 3.2175 3.2175C4.20603 2.22823 5.3702 1.44467 6.71 0.8668C8.0498 0.288933 9.4798 0 11 0C12.5202 0 13.9502 0.288933 15.29 0.8668C16.6298 1.44467 17.794 2.22823 18.7825 3.2175C19.771 4.20677 20.555 5.37093 21.1343 6.71C21.7136 8.04906 22.0022 9.47906 22 11C21.9978 12.5209 21.7089 13.9509 21.1332 15.29C20.5575 16.6291 19.774 17.7932 18.7825 18.7825C17.791 19.7718 16.6269 20.5557 15.29 21.1343C13.9531 21.7129 12.5231 22.0015 11 22Z" fill="#3D3D3D"/>
</svg>
