<svg width="22" height="22" viewBox="0 0 22 22" fill="none" xmlns="http://www.w3.org/2000/svg">
<path d="M12.2222 6.11111V1.22222C12.2222 0.875926 12.3396 0.585852 12.5742 0.352C12.8089 0.118148 13.099 0.000814815 13.4444 0H20.7778C21.1241 0 21.4146 0.117333 21.6492 0.352C21.8839 0.586667 22.0008 0.876741 22 1.22222V6.11111C22 6.45741 21.8827 6.74789 21.648 6.98255C21.4133 7.21722 21.1233 7.33415 20.7778 7.33333H13.4444C13.0981 7.33333 12.8081 7.216 12.5742 6.98133C12.3404 6.74667 12.223 6.45659 12.2222 6.11111ZM0 11V1.22222C0 0.875926 0.117333 0.585852 0.352 0.352C0.586667 0.118148 0.876741 0.000814815 1.22222 0H8.55555C8.90185 0 9.19233 0.117333 9.427 0.352C9.66166 0.586667 9.77859 0.876741 9.77778 1.22222V11C9.77778 11.3463 9.66044 11.6368 9.42578 11.8714C9.19111 12.1061 8.90104 12.223 8.55555 12.2222H1.22222C0.875926 12.2222 0.585852 12.1049 0.352 11.8702C0.118148 11.6356 0.000814815 11.3455 0 11ZM12.2222 20.7778V11C12.2222 10.6537 12.3396 10.3636 12.5742 10.1298C12.8089 9.89592 13.099 9.77859 13.4444 9.77778H20.7778C21.1241 9.77778 21.4146 9.89511 21.6492 10.1298C21.8839 10.3644 22.0008 10.6545 22 11V20.7778C22 21.1241 21.8827 21.4146 21.648 21.6492C21.4133 21.8839 21.1233 22.0008 20.7778 22H13.4444C13.0981 22 12.8081 21.8827 12.5742 21.648C12.3404 21.4133 12.223 21.1233 12.2222 20.7778ZM0 20.7778V15.8889C0 15.5426 0.117333 15.2525 0.352 15.0187C0.586667 14.7848 0.876741 14.6675 1.22222 14.6667H8.55555C8.90185 14.6667 9.19233 14.784 9.427 15.0187C9.66166 15.2533 9.77859 15.5434 9.77778 15.8889V20.7778C9.77778 21.1241 9.66044 21.4146 9.42578 21.6492C9.19111 21.8839 8.90104 22.0008 8.55555 22H1.22222C0.875926 22 0.585852 21.8827 0.352 21.648C0.118148 21.4133 0.000814815 21.1233 0 20.7778ZM2.44444 9.77778H7.33333V2.44444H2.44444V9.77778ZM14.6667 19.5556H19.5556V12.2222H14.6667V19.5556ZM14.6667 4.88889H19.5556V2.44444H14.6667V4.88889ZM2.44444 19.5556H7.33333V17.1111H2.44444V19.5556Z" fill="white"/>
</svg>
