<svg xmlns="http://www.w3.org/2000/svg" width="24" height="24" viewBox="0 0 24 24" fill="none">
  <rect width="24" height="24" rx="12" fill="#FFDAD6"/>
  <path d="M9.40741 16.6663C9.12222 16.6663 8.87817 16.5649 8.67526 16.362C8.47235 16.1591 8.37072 15.9148 8.37037 15.6293V8.88856H7.85185V7.85153H10.4444V7.33301H13.5556V7.85153H16.1481V8.88856H15.6296V15.6293C15.6296 15.9145 15.5282 16.1587 15.3253 16.362C15.1223 16.5652 14.8781 16.6667 14.5926 16.6663H9.40741ZM14.5926 8.88856H9.40741V15.6293H14.5926V8.88856ZM10.4444 14.5923H11.4815V9.9256H10.4444V14.5923ZM12.5185 14.5923H13.5556V9.9256H12.5185V14.5923Z" fill="#D32F2F"/>
</svg>