<svg xmlns="http://www.w3.org/2000/svg" width="24" height="24" viewBox="0 0 24 24" fill="none">
<rect width="24" height="24" rx="12" fill="#E6EEFA"/>
<path d="M8.37037 15.6293H9.10925L14.1778 10.5608L13.4389 9.8219L8.37037 14.8904V15.6293ZM7.33333 16.6663V14.4626L14.1778 7.63116C14.2815 7.53609 14.3961 7.46264 14.5215 7.41079C14.647 7.35893 14.7787 7.33301 14.9167 7.33301C15.0546 7.33301 15.1885 7.35893 15.3185 7.41079C15.4485 7.46264 15.5608 7.54042 15.6555 7.64412L16.3685 8.37004C16.4722 8.46511 16.5479 8.57745 16.5956 8.70708C16.6433 8.83671 16.667 8.96634 16.6667 9.09597C16.6667 9.23424 16.643 9.36612 16.5956 9.4916C16.5483 9.61708 16.4726 9.7315 16.3685 9.83486L9.53703 16.6663H7.33333ZM13.8018 10.1978L13.4389 9.8219L14.1778 10.5608L13.8018 10.1978Z" fill="#0052CC"/>
</svg>