<svg xmlns="http://www.w3.org/2000/svg" width="16" height="16" viewBox="0 0 16 16" fill="none">
  <path d="M13.1788 7.50647V13.4321C13.1788 13.7595 13.0487 14.0735 12.8172 14.3051C12.5857 14.5366 12.2717 14.6666 11.9442 14.6666H3.05575C2.72834 14.6666 2.41433 14.5366 2.18282 14.3051C1.9513 14.0735 1.82124 13.7595 1.82124 13.4321V7.50647C1.82124 7.17905 1.9513 6.86505 2.18282 6.63353C2.41433 6.40202 2.72834 6.27195 3.05575 6.27195H4.29026C4.48671 6.27195 4.67511 6.34999 4.81402 6.4889C4.95293 6.62781 5.03097 6.81621 5.03097 7.01266C5.03097 7.20911 4.95293 7.39751 4.81402 7.53642C4.67511 7.67533 4.48671 7.75337 4.29026 7.75337H3.30265V13.1852H11.6973V7.75337H10.7097C10.5133 7.75337 10.3249 7.67533 10.186 7.53642C10.0471 7.39751 9.96903 7.20911 9.96903 7.01266C9.96903 6.81621 10.0471 6.62781 10.186 6.4889C10.3249 6.34999 10.5133 6.27195 10.7097 6.27195H11.9442C12.2717 6.27195 12.5857 6.40202 12.8172 6.63353C13.0487 6.86505 13.1788 7.17905 13.1788 7.50647ZM5.55502 5.06768L6.75929 3.86465V8.98788C6.75929 9.18433 6.83733 9.37273 6.97624 9.51164C7.11515 9.65055 7.30355 9.72859 7.5 9.72859C7.69645 9.72859 7.88485 9.65055 8.02376 9.51164C8.16267 9.37273 8.24071 9.18433 8.24071 8.98788V3.86465L9.44498 5.06954C9.51388 5.13844 9.59567 5.19309 9.6857 5.23038C9.77572 5.26767 9.8722 5.28686 9.96964 5.28686C10.0671 5.28686 10.1636 5.26767 10.2536 5.23038C10.3436 5.19309 10.4254 5.13844 10.4943 5.06954C10.5632 5.00064 10.6179 4.91884 10.6552 4.82882C10.6924 4.73879 10.7116 4.64231 10.7116 4.54487C10.7116 4.44743 10.6924 4.35094 10.6552 4.26092C10.6179 4.1709 10.5632 4.0891 10.4943 4.0202L8.02528 1.55117C7.95647 1.48212 7.8747 1.42733 7.78467 1.38994C7.69463 1.35256 7.5981 1.33331 7.50062 1.33331C7.40313 1.33331 7.3066 1.35256 7.21657 1.38994C7.12653 1.42733 7.04476 1.48212 6.97595 1.55117L4.50692 4.0202C4.43802 4.0891 4.38337 4.1709 4.34608 4.26092C4.30879 4.35094 4.2896 4.44743 4.2896 4.54487C4.2896 4.74166 4.36777 4.93039 4.50692 5.06954C4.64607 5.20869 4.8348 5.28686 5.03159 5.28686C5.22838 5.28686 5.41711 5.20869 5.55626 5.06954L5.55502 5.06768Z" fill="#0052CC"/>
</svg>