<svg xmlns="http://www.w3.org/2000/svg" width="24" height="24" viewBox="0 0 24 24" fill="none">
  <path fill-rule="evenodd" clip-rule="evenodd" d="M14.5389 1.28205C14.5389 1.20725 14.5092 1.13551 14.4563 1.08261C14.4034 1.02972 14.3316 1 14.2568 1H6.3594C5.53655 1 4.7474 1.32688 4.16556 1.90872C3.58371 2.49056 3.25684 3.27971 3.25684 4.10256V19.8974C3.25684 20.7203 3.58371 21.5094 4.16556 22.0913C4.7474 22.6731 5.53655 23 6.3594 23H17.6415C18.4643 23 19.2535 22.6731 19.8353 22.0913C20.4171 21.5094 20.744 20.7203 20.744 19.8974V8.78123C20.744 8.70643 20.7143 8.63469 20.6614 8.58179C20.6085 8.5289 20.5368 8.49918 20.462 8.49918H15.385C15.1606 8.49918 14.9454 8.41003 14.7867 8.25135C14.628 8.09266 14.5389 7.87744 14.5389 7.65303V1.28205ZM15.385 12.2821C15.6095 12.2821 15.8247 12.3712 15.9834 12.5299C16.142 12.6886 16.2312 12.9038 16.2312 13.1282C16.2312 13.3526 16.142 13.5678 15.9834 13.7265C15.8247 13.8852 15.6095 13.9744 15.385 13.9744H8.61581C8.3914 13.9744 8.17617 13.8852 8.01749 13.7265C7.8588 13.5678 7.76966 13.3526 7.76966 13.1282C7.76966 12.9038 7.8588 12.6886 8.01749 12.5299C8.17617 12.3712 8.3914 12.2821 8.61581 12.2821H15.385ZM15.385 16.7949C15.6095 16.7949 15.8247 16.884 15.9834 17.0427C16.142 17.2014 16.2312 17.4166 16.2312 17.641C16.2312 17.8654 16.142 18.0807 15.9834 18.2393C15.8247 18.398 15.6095 18.4872 15.385 18.4872H8.61581C8.3914 18.4872 8.17617 18.398 8.01749 18.2393C7.8588 18.0807 7.76966 17.8654 7.76966 17.641C7.76966 17.4166 7.8588 17.2014 8.01749 17.0427C8.17617 16.884 8.3914 16.7949 8.61581 16.7949H15.385Z" fill="#5D5D5D"/>
  <path fill-rule="evenodd" clip-rule="evenodd" d="M14.5389 1.28205C14.5389 1.20725 14.5092 1.13551 14.4563 1.08261C14.4034 1.02972 14.3316 1 14.2568 1H6.3594C5.53655 1 4.7474 1.32688 4.16556 1.90872C3.58371 2.49056 3.25684 3.27971 3.25684 4.10256V19.8974C3.25684 20.7203 3.58371 21.5094 4.16556 22.0913C4.7474 22.6731 5.53655 23 6.3594 23H17.6415C18.4643 23 19.2535 22.6731 19.8353 22.0913C20.4171 21.5094 20.744 20.7203 20.744 19.8974V8.78123C20.744 8.70643 20.7143 8.63469 20.6614 8.58179C20.6085 8.5289 20.5368 8.49918 20.462 8.49918H15.385C15.1606 8.49918 14.9454 8.41003 14.7867 8.25135C14.628 8.09266 14.5389 7.87744 14.5389 7.65303V1.28205ZM15.385 12.2821C15.6095 12.2821 15.8247 12.3712 15.9834 12.5299C16.142 12.6886 16.2312 12.9038 16.2312 13.1282C16.2312 13.3526 16.142 13.5678 15.9834 13.7265C15.8247 13.8852 15.6095 13.9744 15.385 13.9744H8.61581C8.3914 13.9744 8.17617 13.8852 8.01749 13.7265C7.8588 13.5678 7.76966 13.3526 7.76966 13.1282C7.76966 12.9038 7.8588 12.6886 8.01749 12.5299C8.17617 12.3712 8.3914 12.2821 8.61581 12.2821H15.385ZM15.385 16.7949C15.6095 16.7949 15.8247 16.884 15.9834 17.0427C16.142 17.2014 16.2312 17.4166 16.2312 17.641C16.2312 17.8654 16.142 18.0807 15.9834 18.2393C15.8247 18.398 15.6095 18.4872 15.385 18.4872H8.61581C8.3914 18.4872 8.17617 18.398 8.01749 18.2393C7.8588 18.0807 7.76966 17.8654 7.76966 17.641C7.76966 17.4166 7.8588 17.2014 8.01749 17.0427C8.17617 16.884 8.3914 16.7949 8.61581 16.7949H15.385Z" fill="black" fill-opacity="0.2"/>
  <path fill-rule="evenodd" clip-rule="evenodd" d="M14.5389 1.28205C14.5389 1.20725 14.5092 1.13551 14.4563 1.08261C14.4034 1.02972 14.3316 1 14.2568 1H6.3594C5.53655 1 4.7474 1.32688 4.16556 1.90872C3.58371 2.49056 3.25684 3.27971 3.25684 4.10256V19.8974C3.25684 20.7203 3.58371 21.5094 4.16556 22.0913C4.7474 22.6731 5.53655 23 6.3594 23H17.6415C18.4643 23 19.2535 22.6731 19.8353 22.0913C20.4171 21.5094 20.744 20.7203 20.744 19.8974V8.78123C20.744 8.70643 20.7143 8.63469 20.6614 8.58179C20.6085 8.5289 20.5368 8.49918 20.462 8.49918H15.385C15.1606 8.49918 14.9454 8.41003 14.7867 8.25135C14.628 8.09266 14.5389 7.87744 14.5389 7.65303V1.28205ZM15.385 12.2821C15.6095 12.2821 15.8247 12.3712 15.9834 12.5299C16.142 12.6886 16.2312 12.9038 16.2312 13.1282C16.2312 13.3526 16.142 13.5678 15.9834 13.7265C15.8247 13.8852 15.6095 13.9744 15.385 13.9744H8.61581C8.3914 13.9744 8.17617 13.8852 8.01749 13.7265C7.8588 13.5678 7.76966 13.3526 7.76966 13.1282C7.76966 12.9038 7.8588 12.6886 8.01749 12.5299C8.17617 12.3712 8.3914 12.2821 8.61581 12.2821H15.385ZM15.385 16.7949C15.6095 16.7949 15.8247 16.884 15.9834 17.0427C16.142 17.2014 16.2312 17.4166 16.2312 17.641C16.2312 17.8654 16.142 18.0807 15.9834 18.2393C15.8247 18.398 15.6095 18.4872 15.385 18.4872H8.61581C8.3914 18.4872 8.17617 18.398 8.01749 18.2393C7.8588 18.0807 7.76966 17.8654 7.76966 17.641C7.76966 17.4166 7.8588 17.2014 8.01749 17.0427C8.17617 16.884 8.3914 16.7949 8.61581 16.7949H15.385Z" fill="black" fill-opacity="0.2"/>
  <path fill-rule="evenodd" clip-rule="evenodd" d="M14.5389 1.28205C14.5389 1.20725 14.5092 1.13551 14.4563 1.08261C14.4034 1.02972 14.3316 1 14.2568 1H6.3594C5.53655 1 4.7474 1.32688 4.16556 1.90872C3.58371 2.49056 3.25684 3.27971 3.25684 4.10256V19.8974C3.25684 20.7203 3.58371 21.5094 4.16556 22.0913C4.7474 22.6731 5.53655 23 6.3594 23H17.6415C18.4643 23 19.2535 22.6731 19.8353 22.0913C20.4171 21.5094 20.744 20.7203 20.744 19.8974V8.78123C20.744 8.70643 20.7143 8.63469 20.6614 8.58179C20.6085 8.5289 20.5368 8.49918 20.462 8.49918H15.385C15.1606 8.49918 14.9454 8.41003 14.7867 8.25135C14.628 8.09266 14.5389 7.87744 14.5389 7.65303V1.28205ZM15.385 12.2821C15.6095 12.2821 15.8247 12.3712 15.9834 12.5299C16.142 12.6886 16.2312 12.9038 16.2312 13.1282C16.2312 13.3526 16.142 13.5678 15.9834 13.7265C15.8247 13.8852 15.6095 13.9744 15.385 13.9744H8.61581C8.3914 13.9744 8.17617 13.8852 8.01749 13.7265C7.8588 13.5678 7.76966 13.3526 7.76966 13.1282C7.76966 12.9038 7.8588 12.6886 8.01749 12.5299C8.17617 12.3712 8.3914 12.2821 8.61581 12.2821H15.385ZM15.385 16.7949C15.6095 16.7949 15.8247 16.884 15.9834 17.0427C16.142 17.2014 16.2312 17.4166 16.2312 17.641C16.2312 17.8654 16.142 18.0807 15.9834 18.2393C15.8247 18.398 15.6095 18.4872 15.385 18.4872H8.61581C8.3914 18.4872 8.17617 18.398 8.01749 18.2393C7.8588 18.0807 7.76966 17.8654 7.76966 17.641C7.76966 17.4166 7.8588 17.2014 8.01749 17.0427C8.17617 16.884 8.3914 16.7949 8.61581 16.7949H15.385Z" fill="black" fill-opacity="0.2"/>
  <path d="M16 1.65196C16 1.45293 16.2088 1.32638 16.3634 1.45077C16.4947 1.55677 16.6111 1.68008 16.7128 1.8207L19.9719 6.36049C20.0455 6.46433 19.9654 6.59846 19.8378 6.59846H16.2704C16.1987 6.59846 16.1299 6.56997 16.0792 6.51926C16.0285 6.46854 16 6.39976 16 6.32804V1.65196Z" fill="#5D5D5D"/>
  <path d="M16 1.65196C16 1.45293 16.2088 1.32638 16.3634 1.45077C16.4947 1.55677 16.6111 1.68008 16.7128 1.8207L19.9719 6.36049C20.0455 6.46433 19.9654 6.59846 19.8378 6.59846H16.2704C16.1987 6.59846 16.1299 6.56997 16.0792 6.51926C16.0285 6.46854 16 6.39976 16 6.32804V1.65196Z" fill="black" fill-opacity="0.2"/>
  <path d="M16 1.65196C16 1.45293 16.2088 1.32638 16.3634 1.45077C16.4947 1.55677 16.6111 1.68008 16.7128 1.8207L19.9719 6.36049C20.0455 6.46433 19.9654 6.59846 19.8378 6.59846H16.2704C16.1987 6.59846 16.1299 6.56997 16.0792 6.51926C16.0285 6.46854 16 6.39976 16 6.32804V1.65196Z" fill="black" fill-opacity="0.2"/>
  <path d="M16 1.65196C16 1.45293 16.2088 1.32638 16.3634 1.45077C16.4947 1.55677 16.6111 1.68008 16.7128 1.8207L19.9719 6.36049C20.0455 6.46433 19.9654 6.59846 19.8378 6.59846H16.2704C16.1987 6.59846 16.1299 6.56997 16.0792 6.51926C16.0285 6.46854 16 6.39976 16 6.32804V1.65196Z" fill="black" fill-opacity="0.2"/>
</svg>