<svg xmlns="http://www.w3.org/2000/svg" width="25" height="24" viewBox="0 0 25 24" fill="none">
  <path fill-rule="evenodd" clip-rule="evenodd" d="M15.0384 1.28205C15.0384 1.20725 15.0087 1.13551 14.9558 1.08261C14.9029 1.02972 14.8312 1 14.7563 1H6.85891C6.03606 1 5.24691 1.32688 4.66507 1.90872C4.08322 2.49056 3.75635 3.27971 3.75635 4.10256V19.8974C3.75635 20.7203 4.08322 21.5094 4.66507 22.0913C5.24691 22.6731 6.03606 23 6.85891 23H18.141C18.9638 23 19.753 22.6731 20.3348 22.0913C20.9167 21.5094 21.2435 20.7203 21.2435 19.8974V8.78123C21.2435 8.70643 21.2138 8.63469 21.1609 8.58179C21.108 8.5289 21.0363 8.49918 20.9615 8.49918H15.8846C15.6601 8.49918 15.4449 8.41003 15.2862 8.25135C15.1275 8.09266 15.0384 7.87744 15.0384 7.65303V1.28205ZM15.8846 12.2821C16.109 12.2821 16.3242 12.3712 16.4829 12.5299C16.6416 12.6886 16.7307 12.9038 16.7307 13.1282C16.7307 13.3526 16.6416 13.5678 16.4829 13.7265C16.3242 13.8852 16.109 13.9744 15.8846 13.9744H9.11532C8.89091 13.9744 8.67569 13.8852 8.517 13.7265C8.35832 13.5678 8.26917 13.3526 8.26917 13.1282C8.26917 12.9038 8.35832 12.6886 8.517 12.5299C8.67569 12.3712 8.89091 12.2821 9.11532 12.2821H15.8846ZM15.8846 16.7949C16.109 16.7949 16.3242 16.884 16.4829 17.0427C16.6416 17.2014 16.7307 17.4166 16.7307 17.641C16.7307 17.8654 16.6416 18.0807 16.4829 18.2393C16.3242 18.398 16.109 18.4872 15.8846 18.4872H9.11532C8.89091 18.4872 8.67569 18.398 8.517 18.2393C8.35832 18.0807 8.26917 17.8654 8.26917 17.641C8.26917 17.4166 8.35832 17.2014 8.517 17.0427C8.67569 16.884 8.89091 16.7949 9.11532 16.7949H15.8846Z" fill="#5D5D5D"/>
  <path fill-rule="evenodd" clip-rule="evenodd" d="M15.0384 1.28205C15.0384 1.20725 15.0087 1.13551 14.9558 1.08261C14.9029 1.02972 14.8312 1 14.7563 1H6.85891C6.03606 1 5.24691 1.32688 4.66507 1.90872C4.08322 2.49056 3.75635 3.27971 3.75635 4.10256V19.8974C3.75635 20.7203 4.08322 21.5094 4.66507 22.0913C5.24691 22.6731 6.03606 23 6.85891 23H18.141C18.9638 23 19.753 22.6731 20.3348 22.0913C20.9167 21.5094 21.2435 20.7203 21.2435 19.8974V8.78123C21.2435 8.70643 21.2138 8.63469 21.1609 8.58179C21.108 8.5289 21.0363 8.49918 20.9615 8.49918H15.8846C15.6601 8.49918 15.4449 8.41003 15.2862 8.25135C15.1275 8.09266 15.0384 7.87744 15.0384 7.65303V1.28205ZM15.8846 12.2821C16.109 12.2821 16.3242 12.3712 16.4829 12.5299C16.6416 12.6886 16.7307 12.9038 16.7307 13.1282C16.7307 13.3526 16.6416 13.5678 16.4829 13.7265C16.3242 13.8852 16.109 13.9744 15.8846 13.9744H9.11532C8.89091 13.9744 8.67569 13.8852 8.517 13.7265C8.35832 13.5678 8.26917 13.3526 8.26917 13.1282C8.26917 12.9038 8.35832 12.6886 8.517 12.5299C8.67569 12.3712 8.89091 12.2821 9.11532 12.2821H15.8846ZM15.8846 16.7949C16.109 16.7949 16.3242 16.884 16.4829 17.0427C16.6416 17.2014 16.7307 17.4166 16.7307 17.641C16.7307 17.8654 16.6416 18.0807 16.4829 18.2393C16.3242 18.398 16.109 18.4872 15.8846 18.4872H9.11532C8.89091 18.4872 8.67569 18.398 8.517 18.2393C8.35832 18.0807 8.26917 17.8654 8.26917 17.641C8.26917 17.4166 8.35832 17.2014 8.517 17.0427C8.67569 16.884 8.89091 16.7949 9.11532 16.7949H15.8846Z" fill="black" fill-opacity="0.2"/>
  <path fill-rule="evenodd" clip-rule="evenodd" d="M15.0384 1.28205C15.0384 1.20725 15.0087 1.13551 14.9558 1.08261C14.9029 1.02972 14.8312 1 14.7563 1H6.85891C6.03606 1 5.24691 1.32688 4.66507 1.90872C4.08322 2.49056 3.75635 3.27971 3.75635 4.10256V19.8974C3.75635 20.7203 4.08322 21.5094 4.66507 22.0913C5.24691 22.6731 6.03606 23 6.85891 23H18.141C18.9638 23 19.753 22.6731 20.3348 22.0913C20.9167 21.5094 21.2435 20.7203 21.2435 19.8974V8.78123C21.2435 8.70643 21.2138 8.63469 21.1609 8.58179C21.108 8.5289 21.0363 8.49918 20.9615 8.49918H15.8846C15.6601 8.49918 15.4449 8.41003 15.2862 8.25135C15.1275 8.09266 15.0384 7.87744 15.0384 7.65303V1.28205ZM15.8846 12.2821C16.109 12.2821 16.3242 12.3712 16.4829 12.5299C16.6416 12.6886 16.7307 12.9038 16.7307 13.1282C16.7307 13.3526 16.6416 13.5678 16.4829 13.7265C16.3242 13.8852 16.109 13.9744 15.8846 13.9744H9.11532C8.89091 13.9744 8.67569 13.8852 8.517 13.7265C8.35832 13.5678 8.26917 13.3526 8.26917 13.1282C8.26917 12.9038 8.35832 12.6886 8.517 12.5299C8.67569 12.3712 8.89091 12.2821 9.11532 12.2821H15.8846ZM15.8846 16.7949C16.109 16.7949 16.3242 16.884 16.4829 17.0427C16.6416 17.2014 16.7307 17.4166 16.7307 17.641C16.7307 17.8654 16.6416 18.0807 16.4829 18.2393C16.3242 18.398 16.109 18.4872 15.8846 18.4872H9.11532C8.89091 18.4872 8.67569 18.398 8.517 18.2393C8.35832 18.0807 8.26917 17.8654 8.26917 17.641C8.26917 17.4166 8.35832 17.2014 8.517 17.0427C8.67569 16.884 8.89091 16.7949 9.11532 16.7949H15.8846Z" fill="black" fill-opacity="0.2"/>
  <path fill-rule="evenodd" clip-rule="evenodd" d="M15.0384 1.28205C15.0384 1.20725 15.0087 1.13551 14.9558 1.08261C14.9029 1.02972 14.8312 1 14.7563 1H6.85891C6.03606 1 5.24691 1.32688 4.66507 1.90872C4.08322 2.49056 3.75635 3.27971 3.75635 4.10256V19.8974C3.75635 20.7203 4.08322 21.5094 4.66507 22.0913C5.24691 22.6731 6.03606 23 6.85891 23H18.141C18.9638 23 19.753 22.6731 20.3348 22.0913C20.9167 21.5094 21.2435 20.7203 21.2435 19.8974V8.78123C21.2435 8.70643 21.2138 8.63469 21.1609 8.58179C21.108 8.5289 21.0363 8.49918 20.9615 8.49918H15.8846C15.6601 8.49918 15.4449 8.41003 15.2862 8.25135C15.1275 8.09266 15.0384 7.87744 15.0384 7.65303V1.28205ZM15.8846 12.2821C16.109 12.2821 16.3242 12.3712 16.4829 12.5299C16.6416 12.6886 16.7307 12.9038 16.7307 13.1282C16.7307 13.3526 16.6416 13.5678 16.4829 13.7265C16.3242 13.8852 16.109 13.9744 15.8846 13.9744H9.11532C8.89091 13.9744 8.67569 13.8852 8.517 13.7265C8.35832 13.5678 8.26917 13.3526 8.26917 13.1282C8.26917 12.9038 8.35832 12.6886 8.517 12.5299C8.67569 12.3712 8.89091 12.2821 9.11532 12.2821H15.8846ZM15.8846 16.7949C16.109 16.7949 16.3242 16.884 16.4829 17.0427C16.6416 17.2014 16.7307 17.4166 16.7307 17.641C16.7307 17.8654 16.6416 18.0807 16.4829 18.2393C16.3242 18.398 16.109 18.4872 15.8846 18.4872H9.11532C8.89091 18.4872 8.67569 18.398 8.517 18.2393C8.35832 18.0807 8.26917 17.8654 8.26917 17.641C8.26917 17.4166 8.35832 17.2014 8.517 17.0427C8.67569 16.884 8.89091 16.7949 9.11532 16.7949H15.8846Z" fill="black" fill-opacity="0.2"/>
  <path d="M16.5 1.65196C16.5 1.45293 16.7088 1.32638 16.8634 1.45077C16.9947 1.55677 17.1111 1.68008 17.2128 1.8207L20.4719 6.36049C20.5455 6.46433 20.4654 6.59846 20.3378 6.59846H16.7704C16.6987 6.59846 16.6299 6.56997 16.5792 6.51926C16.5285 6.46854 16.5 6.39976 16.5 6.32804V1.65196Z" fill="#5D5D5D"/>
  <path d="M16.5 1.65196C16.5 1.45293 16.7088 1.32638 16.8634 1.45077C16.9947 1.55677 17.1111 1.68008 17.2128 1.8207L20.4719 6.36049C20.5455 6.46433 20.4654 6.59846 20.3378 6.59846H16.7704C16.6987 6.59846 16.6299 6.56997 16.5792 6.51926C16.5285 6.46854 16.5 6.39976 16.5 6.32804V1.65196Z" fill="black" fill-opacity="0.2"/>
  <path d="M16.5 1.65196C16.5 1.45293 16.7088 1.32638 16.8634 1.45077C16.9947 1.55677 17.1111 1.68008 17.2128 1.8207L20.4719 6.36049C20.5455 6.46433 20.4654 6.59846 20.3378 6.59846H16.7704C16.6987 6.59846 16.6299 6.56997 16.5792 6.51926C16.5285 6.46854 16.5 6.39976 16.5 6.32804V1.65196Z" fill="black" fill-opacity="0.2"/>
  <path d="M16.5 1.65196C16.5 1.45293 16.7088 1.32638 16.8634 1.45077C16.9947 1.55677 17.1111 1.68008 17.2128 1.8207L20.4719 6.36049C20.5455 6.46433 20.4654 6.59846 20.3378 6.59846H16.7704C16.6987 6.59846 16.6299 6.56997 16.5792 6.51926C16.5285 6.46854 16.5 6.39976 16.5 6.32804V1.65196Z" fill="black" fill-opacity="0.2"/>
</svg>