<svg width="22" height="22" viewBox="0 0 22 22" fill="none" xmlns="http://www.w3.org/2000/svg">
<path d="M17 4V3C17 2.20435 16.6839 1.44129 16.1213 0.87868C15.5587 0.31607 14.7956 0 14 0H8C7.20435 0 6.44129 0.31607 5.87868 0.87868C5.31607 1.44129 5 2.20435 5 3V4C4.34339 4 3.69321 4.12933 3.08658 4.3806C2.47995 4.63188 1.92876 5.00017 1.46447 5.46447C0.526784 6.40215 0 7.67392 0 9V17C0 17.6566 0.129329 18.3068 0.380602 18.9134C0.631876 19.52 1.00017 20.0712 1.46447 20.5355C2.40215 21.4732 3.67392 22 5 22H17C17.6566 22 18.3068 21.8707 18.9134 21.6194C19.52 21.3681 20.0712 20.9998 20.5355 20.5355C20.9998 20.0712 21.3681 19.52 21.6194 18.9134C21.8707 18.3068 22 17.6566 22 17V9C22 8.34339 21.8707 7.69321 21.6194 7.08658C21.3681 6.47996 20.9998 5.92876 20.5355 5.46447C20.0712 5.00017 19.52 4.63188 18.9134 4.3806C18.3068 4.12933 17.6566 4 17 4ZM7 3C7 2.73478 7.10536 2.48043 7.29289 2.29289C7.48043 2.10536 7.73478 2 8 2H14C14.2652 2 14.5196 2.10536 14.7071 2.29289C14.8946 2.48043 15 2.73478 15 3V4H7V3ZM5 6H17C17.7956 6 18.5587 6.31607 19.1213 6.87868C19.6839 7.44129 20 8.20435 20 9V10.59L17.46 13.12C16.8979 13.6828 16.1354 13.9993 15.34 14H6.66C5.86462 13.9993 5.10207 13.6828 4.54 13.12L2 10.59V9C2 8.20435 2.31607 7.44129 2.87868 6.87868C3.44129 6.31607 4.20435 6 5 6ZM17 20H5C4.20435 20 3.44129 19.6839 2.87868 19.1213C2.31607 18.5587 2 17.7956 2 17V13.41L3.12 14.54C3.58519 15.004 4.13728 15.3718 4.74469 15.6223C5.35211 15.8728 6.00295 16.0012 6.66 16H15.34C15.997 16.0012 16.6479 15.8728 17.2553 15.6223C17.8627 15.3718 18.4148 15.004 18.88 14.54L20 13.41V17C20 17.7956 19.6839 18.5587 19.1213 19.1213C18.5587 19.6839 17.7956 20 17 20Z" fill="#3D3D3D"/>
</svg>
