<svg width="22" height="22" viewBox="0 0 22 22" fill="none" xmlns="http://www.w3.org/2000/svg">
<path d="M14.5 22C12.7667 22 11.2377 21.4833 9.913 20.45C8.58833 19.4167 7.709 18.1 7.275 16.5C8.025 16.5333 8.76667 16.4583 9.5 16.275C10.2333 16.0917 10.9333 15.8333 11.6 15.5H15.7C15.7167 15.3167 15.7293 15.1377 15.738 14.963C15.7467 14.7883 15.7507 14.609 15.75 14.425C15.75 14.275 15.746 14.121 15.738 13.963C15.73 13.805 15.7173 13.6507 15.7 13.5H14.225C14.4917 13.2 14.7377 12.8833 14.963 12.55C15.1883 12.2167 15.3923 11.8667 15.575 11.5H19.1C18.7667 11 18.3667 10.5627 17.9 10.188C17.4333 9.81333 16.9083 9.52567 16.325 9.325C16.4083 8.99167 16.4627 8.65 16.488 8.3C16.5133 7.95 16.5173 7.60833 16.5 7.275C18.1 7.70833 19.4167 8.58767 20.45 9.913C21.4833 11.2383 22 12.7673 22 14.5C22 16.5833 21.271 18.3543 19.813 19.813C18.355 21.2717 16.584 22.0007 14.5 22ZM12.125 19.45C12.0083 19.1167 11.9043 18.7917 11.813 18.475C11.7217 18.1583 11.6423 17.8333 11.575 17.5H9.9C10.1833 17.9167 10.5123 18.2917 10.887 18.625C11.2617 18.9583 11.6743 19.2333 12.125 19.45ZM14.5 19.8C14.7 19.4333 14.871 19.0583 15.013 18.675C15.155 18.2917 15.2757 17.9 15.375 17.5H13.625C13.725 17.9 13.85 18.2917 14 18.675C14.15 19.0583 14.3167 19.4333 14.5 19.8ZM16.875 19.45C17.325 19.2333 17.7377 18.9583 18.113 18.625C18.4883 18.2917 18.8173 17.9167 19.1 17.5H17.425C17.3417 17.8333 17.2583 18.1583 17.175 18.475C17.0917 18.7917 16.9917 19.1167 16.875 19.45ZM17.7 15.5H19.9C19.9333 15.3333 19.9583 15.1707 19.975 15.012C19.9917 14.8533 20 14.6827 20 14.5C20 14.3173 19.9917 14.1463 19.975 13.987C19.9583 13.8277 19.9333 13.6653 19.9 13.5H17.7C17.7167 13.65 17.7293 13.8043 17.738 13.963C17.7467 14.1217 17.7507 14.2757 17.75 14.425C17.75 14.6083 17.746 14.7877 17.738 14.963C17.73 15.1383 17.7173 15.3173 17.7 15.5ZM7.5 15C5.41667 15 3.64567 14.271 2.187 12.813C0.728334 11.355 -0.00066621 9.584 4.5683e-07 7.5C0.000667123 5.416 0.73 3.64533 2.188 2.188C3.646 0.730668 5.41667 0.00133516 7.5 1.82482e-06C9.58333 -0.00133151 11.3543 0.728002 12.813 2.188C14.2717 3.648 15.0007 5.41867 15 7.5C14.9993 9.58134 14.2703 11.3523 12.813 12.813C11.3557 14.2737 9.58467 15.0027 7.5 15ZM5 7C5.28333 7 5.521 6.904 5.713 6.712C5.905 6.52 6.00067 6.28267 6 6C5.99933 5.71733 5.90333 5.48 5.712 5.288C5.52067 5.096 5.28333 5 5 5C4.71667 5 4.47933 5.096 4.288 5.288C4.09667 5.48 4.00067 5.71733 4 6C3.99933 6.28267 4.09533 6.52033 4.288 6.713C4.48067 6.90567 4.718 7.00133 5 7ZM7.5 11.4C8.3 11.4 9.01267 11.175 9.638 10.725C10.2633 10.275 10.7173 9.7 11 9H4C4.28333 9.7 4.73767 10.275 5.363 10.725C5.98833 11.175 6.70067 11.4 7.5 11.4ZM10 7C10.2833 7 10.521 6.904 10.713 6.712C10.905 6.52 11.0007 6.28267 11 6C10.9993 5.71733 10.9033 5.48 10.712 5.288C10.5207 5.096 10.2833 5 10 5C9.71667 5 9.47933 5.096 9.288 5.288C9.09667 5.48 9.00067 5.71733 9 6C8.99933 6.28267 9.09533 6.52033 9.288 6.713C9.48067 6.90567 9.718 7.00133 10 7Z" fill="#3D3D3D"/>
</svg>
