<svg xmlns="http://www.w3.org/2000/svg" width="20" height="20" viewBox="0 0 20 20" fill="none">
  <path d="M17.0164 9.24072H4.74801L10.1079 3.88084C10.5362 3.45249 10.5362 2.74955 10.1079 2.3212C10.0063 2.21938 9.88559 2.1386 9.75272 2.08349C9.61985 2.02837 9.47741 2 9.33357 2C9.18972 2 9.04728 2.02837 8.91441 2.08349C8.78155 2.1386 8.66085 2.21938 8.55924 2.3212L1.3212 9.55924C1.21938 9.66085 1.1386 9.78155 1.08349 9.91441C1.02837 10.0473 1 10.1897 1 10.3336C1 10.4774 1.02837 10.6198 1.08349 10.7527C1.1386 10.8856 1.21938 11.0063 1.3212 11.1079L8.55924 18.3459C8.66093 18.4476 8.78164 18.5283 8.9145 18.5833C9.04736 18.6383 9.18976 18.6667 9.33357 18.6667C9.47737 18.6667 9.61977 18.6383 9.75263 18.5833C9.88549 18.5283 10.0062 18.4476 10.1079 18.3459C10.2096 18.2442 10.2902 18.1235 10.3453 17.9907C10.4003 17.8578 10.4286 17.7154 10.4286 17.5716C10.4286 17.4278 10.4003 17.2854 10.3453 17.1525C10.2902 17.0197 10.2096 16.899 10.1079 16.7973L4.74801 11.4374H17.0164C17.6205 11.4374 18.1148 10.9431 18.1148 10.3391C18.1148 9.73497 17.6205 9.24072 17.0164 9.24072Z" fill="#0052CC"/>
</svg>