<svg xmlns="http://www.w3.org/2000/svg" width="16" height="16" viewBox="0 0 16 16" fill="none">
  <path d="M6.86873 13.8247C7.23246 14.1248 7.6118 14.3991 8.00014 14.6668C8.38933 14.4027 8.76682 14.1217 9.13156 13.8247C9.73959 13.3255 10.3118 12.7841 10.844 12.2047C12.0709 10.8632 13.4021 8.9185 13.4021 6.7355C13.4021 6.02609 13.2624 5.32364 12.9909 4.66824C12.7195 4.01284 12.3216 3.41733 11.8199 2.9157C11.3183 2.41408 10.7228 2.01617 10.0674 1.7447C9.412 1.47322 8.70954 1.3335 8.00014 1.3335C7.29074 1.3335 6.58829 1.47322 5.93289 1.7447C5.27749 2.01617 4.68198 2.41408 4.18035 2.9157C3.67873 3.41733 3.28082 4.01284 3.00935 4.66824C2.73787 5.32364 2.59814 6.02609 2.59814 6.7355C2.59814 8.9185 3.92944 10.8626 5.15629 12.2047C5.68846 12.7843 6.26068 13.3253 6.86873 13.8247ZM8.00014 8.68622C7.48278 8.68622 6.98661 8.48069 6.62078 8.11486C6.25494 7.74903 6.04942 7.25286 6.04942 6.7355C6.04942 6.21813 6.25494 5.72196 6.62078 5.35613C6.98661 4.99029 7.48278 4.78477 8.00014 4.78477C8.51751 4.78477 9.01368 4.99029 9.37951 5.35613C9.74534 5.72196 9.95087 6.21813 9.95087 6.7355C9.95087 7.25286 9.74534 7.74903 9.37951 8.11486C9.01368 8.48069 8.51751 8.68622 8.00014 8.68622Z" fill="#909090"/>
</svg>