<svg width="11" height="14" viewBox="0 0 11 14" fill="none" xmlns="http://www.w3.org/2000/svg">
<path d="M5.50002 10.6667C5.85364 10.6667 6.19278 10.5262 6.44283 10.2761C6.69288 10.0261 6.83335 9.68696 6.83335 9.33333C6.83335 8.97971 6.69288 8.64057 6.44283 8.39052C6.19278 8.14048 5.85364 8 5.50002 8C5.1464 8 4.80726 8.14048 4.55721 8.39052C4.30716 8.64057 4.16669 8.97971 4.16669 9.33333C4.16669 9.68696 4.30716 10.0261 4.55721 10.2761C4.80726 10.5262 5.1464 10.6667 5.50002 10.6667ZM9.50002 4.66667C9.85364 4.66667 10.1928 4.80714 10.4428 5.05719C10.6929 5.30724 10.8334 5.64638 10.8334 6V12.6667C10.8334 13.0203 10.6929 13.3594 10.4428 13.6095C10.1928 13.8595 9.85364 14 9.50002 14H1.50002C1.1464 14 0.80726 13.8595 0.557211 13.6095C0.307163 13.3594 0.166687 13.0203 0.166687 12.6667V6C0.166687 5.64638 0.307163 5.30724 0.557211 5.05719C0.80726 4.80714 1.1464 4.66667 1.50002 4.66667H2.16669V3.33333C2.16669 2.44928 2.51788 1.60143 3.143 0.976311C3.76812 0.351189 4.61597 0 5.50002 0C5.93776 0 6.37121 0.0862192 6.77563 0.253735C7.18005 0.421251 7.54752 0.666782 7.85704 0.976311C8.16657 1.28584 8.4121 1.6533 8.57962 2.05772C8.74714 2.46214 8.83335 2.89559 8.83335 3.33333V4.66667H9.50002ZM5.50002 1.33333C4.96959 1.33333 4.46088 1.54405 4.08581 1.91912C3.71073 2.29419 3.50002 2.8029 3.50002 3.33333V4.66667H7.50002V3.33333C7.50002 2.8029 7.28931 2.29419 6.91424 1.91912C6.53916 1.54405 6.03045 1.33333 5.50002 1.33333Z" fill="#0052CC"/>
</svg>
