<svg width="29" height="29" viewBox="0 0 29 29" fill="none" xmlns="http://www.w3.org/2000/svg">
<path d="M14.4004 7.72803V11.724" stroke="#64666D" stroke-width="1.5" stroke-miterlimit="10" stroke-linecap="round"/>
<path d="M14.4235 2.40002C10.0075 2.40002 6.43149 5.97602 6.43149 10.392V12.912C6.43149 13.728 6.09549 14.952 5.67549 15.648L4.15149 18.192C3.21549 19.764 3.86349 21.516 5.59149 22.092C11.3275 24 17.5315 24 23.2675 22.092C24.8875 21.552 25.5835 19.656 24.7075 18.192L23.1835 15.648C22.7635 14.952 22.4275 13.716 22.4275 12.912V10.392C22.4155 6.00002 18.8155 2.40002 14.4235 2.40002Z" stroke="#64666D" stroke-width="1.5" stroke-miterlimit="10" stroke-linecap="round"/>
<path d="M18.3963 22.584C18.3963 24.78 16.5963 26.58 14.4003 26.58C13.3083 26.58 12.3003 26.124 11.5803 25.404C10.8603 24.684 10.4043 23.676 10.4043 22.584" stroke="#64666D" stroke-width="1.5" stroke-miterlimit="10"/>
</svg>
