<svg width="24" height="24" viewBox="0 0 24 24" fill="none" xmlns="http://www.w3.org/2000/svg">
<path d="M1 4H8.4327C8.86621 3.99995 9.29549 4.08531 9.696 4.25122C10.0965 4.41712 10.4604 4.66031 10.7669 4.9669L14.2 8.4M4.3 13.9H1M8.15 7.3L10.35 9.5C10.4945 9.64445 10.609 9.81595 10.6872 10.0047C10.7654 10.1934 10.8056 10.3957 10.8056 10.6C10.8056 10.8043 10.7654 11.0066 10.6872 11.1953C10.609 11.3841 10.4945 11.5555 10.35 11.7C10.2055 11.8445 10.0341 11.959 9.84532 12.0372C9.65658 12.1154 9.45429 12.1556 9.25 12.1556C9.04571 12.1556 8.84342 12.1154 8.65468 12.0372C8.46595 11.959 8.29445 11.8445 8.15 11.7L6.5 10.05C5.554 10.996 4.0547 11.1027 2.9833 10.2997L2.65 10.05" stroke="black" stroke-width="1.5" stroke-linecap="round" stroke-linejoin="round"/>
<path d="M4.30005 11.15V16.1C4.30005 18.1746 4.30005 19.2108 4.94465 19.8554C5.58925 20.5 6.62545 20.5 8.70005 20.5H18.6C20.6746 20.5 21.7108 20.5 22.3554 19.8554C23 19.2108 23 18.1746 23 16.1V12.8C23 10.7254 23 9.6892 22.3554 9.0446C21.7108 8.4 20.6746 8.4 18.6 8.4H9.25005" stroke="black" stroke-width="1.5" stroke-linecap="round" stroke-linejoin="round"/>
<path d="M15.575 14.45C15.575 14.9605 15.3722 15.4502 15.0112 15.8112C14.6501 16.1722 14.1605 16.375 13.65 16.375C13.1394 16.375 12.6498 16.1722 12.2888 15.8112C11.9278 15.4502 11.725 14.9605 11.725 14.45C11.725 13.9395 11.9278 13.4498 12.2888 13.0888C12.6498 12.7278 13.1394 12.525 13.65 12.525C14.1605 12.525 14.6501 12.7278 15.0112 13.0888C15.3722 13.4498 15.575 13.9395 15.575 14.45Z" stroke="black" stroke-width="1.5" stroke-linecap="round" stroke-linejoin="round"/>
</svg>
