<svg xmlns="http://www.w3.org/2000/svg" width="16" height="16" viewBox="0 0 16 16" fill="none">
  <path d="M11.9997 8.66658H8.66634V11.9999C8.66634 12.1767 8.5961 12.3463 8.47108 12.4713C8.34605 12.5963 8.17649 12.6666 7.99967 12.6666C7.82286 12.6666 7.65329 12.5963 7.52827 12.4713C7.40325 12.3463 7.33301 12.1767 7.33301 11.9999V8.66658H3.99967C3.82286 8.66658 3.65329 8.59635 3.52827 8.47132C3.40325 8.3463 3.33301 8.17673 3.33301 7.99992C3.33301 7.82311 3.40325 7.65354 3.52827 7.52851C3.65329 7.40349 3.82286 7.33325 3.99967 7.33325H7.33301V3.99992C7.33301 3.82311 7.40325 3.65354 7.52827 3.52851C7.65329 3.40349 7.82286 3.33325 7.99967 3.33325C8.17649 3.33325 8.34605 3.40349 8.47108 3.52851C8.5961 3.65354 8.66634 3.82311 8.66634 3.99992V7.33325H11.9997C12.1765 7.33325 12.3461 7.40349 12.4711 7.52851C12.5961 7.65354 12.6663 7.82311 12.6663 7.99992C12.6663 8.17673 12.5961 8.3463 12.4711 8.47132C12.3461 8.59635 12.1765 8.66658 11.9997 8.66658Z" fill="#0052CC"/>
</svg>