<svg width="19" height="22" viewBox="0 0 19 22" fill="none" xmlns="http://www.w3.org/2000/svg">
<path fill-rule="evenodd" clip-rule="evenodd" d="M11.15 0V6.05C11.15 6.48761 11.3239 6.90729 11.6333 7.21673C11.9427 7.52616 12.3624 7.7 12.8 7.7H18.85V15.4C18.85 15.9835 18.6182 16.5431 18.2057 16.9556C17.7931 17.3682 17.2335 17.6 16.65 17.6H14.45V19.8C14.45 20.3835 14.2182 20.9431 13.8057 21.3556C13.3931 21.7682 12.8335 22 12.25 22H2.35002C1.76655 22 1.20697 21.7682 0.794389 21.3556C0.381809 20.9431 0.150024 20.3835 0.150024 19.8V6.6C0.150024 6.01652 0.381809 5.45694 0.794389 5.04436C1.20697 4.63178 1.76655 4.4 2.35002 4.4H4.55002V2.2C4.55002 1.61652 4.78181 1.05694 5.19439 0.644365C5.60697 0.231785 6.16655 0 6.75002 0H11.15ZM4.55002 6.6H2.35002V19.8H12.25V17.6H6.75002C6.16655 17.6 5.60697 17.3682 5.19439 16.9556C4.78181 16.5431 4.55002 15.9835 4.55002 15.4V6.6ZM13.35 0.0473C13.7668 0.135691 14.1489 0.343191 14.45 0.6446L18.2054 4.4C18.5068 4.7011 18.7143 5.08323 18.8027 5.5H13.35V0.0473Z" fill="#3D3D3D"/>
</svg>
