<svg xmlns="http://www.w3.org/2000/svg" width="14" height="12" viewBox="0 0 14 12" fill="none">
  <path d="M4.33334 12C3.96667 12 3.65289 11.8696 3.392 11.6087C3.13111 11.3478 3.00045 11.0338 3 10.6667V9.33333H1.66667C1.3 9.33333 0.986225 9.20289 0.725336 8.942C0.464447 8.68111 0.33378 8.36711 0.333336 8V5.33333C0.333336 4.76667 0.52778 4.29178 0.916669 3.90867C1.30556 3.52556 1.77778 3.33378 2.33334 3.33333H11.6667C12.2333 3.33333 12.7084 3.52511 13.092 3.90867C13.4756 4.29222 13.6671 4.76711 13.6667 5.33333V8C13.6667 8.36667 13.5362 8.68067 13.2753 8.942C13.0144 9.20333 12.7004 9.33378 12.3333 9.33333H11V10.6667C11 11.0333 10.8696 11.3473 10.6087 11.6087C10.3478 11.87 10.0338 12.0004 9.66667 12H4.33334ZM11 2.66667H3V1.33333C3 0.966667 3.13067 0.652889 3.392 0.392C3.65334 0.131111 3.96711 0.000444444 4.33334 0H9.66667C10.0333 0 10.3473 0.130667 10.6087 0.392C10.87 0.653333 11.0004 0.967111 11 1.33333V2.66667ZM11 6.33333C11.1889 6.33333 11.3473 6.26933 11.4753 6.14133C11.6033 6.01333 11.6671 5.85511 11.6667 5.66667C11.6662 5.47822 11.6022 5.32 11.4747 5.192C11.3471 5.064 11.1889 5 11 5C10.8111 5 10.6529 5.064 10.5253 5.192C10.3978 5.32 10.3338 5.47822 10.3333 5.66667C10.3329 5.85511 10.3969 6.01356 10.5253 6.142C10.6538 6.27044 10.812 6.33422 11 6.33333ZM4.33334 10.6667H9.66667V8H4.33334V10.6667Z" fill="#0052CC"/>
</svg>