<svg width="24" height="24" viewBox="0 0 24 24" fill="none" xmlns="http://www.w3.org/2000/svg">
<path d="M7.88889 3.44444H5.44444C4.79614 3.44444 4.17438 3.70198 3.71596 4.16041C3.25754 4.61883 3 5.24058 3 5.88889V20.5556C3 21.2039 3.25754 21.8256 3.71596 22.284C4.17438 22.7425 4.79614 23 5.44444 23H17.6667C18.315 23 18.9367 22.7425 19.3951 22.284C19.8536 21.8256 20.1111 21.2039 20.1111 20.5556V5.88889C20.1111 5.24058 19.8536 4.61883 19.3951 4.16041C18.9367 3.70198 18.315 3.44444 17.6667 3.44444H15.2222" fill="white"/>
<path d="M7.88889 3.44444H5.44444C4.79614 3.44444 4.17438 3.70198 3.71596 4.16041C3.25754 4.61883 3 5.24058 3 5.88889V20.5556C3 21.2039 3.25754 21.8256 3.71596 22.284C4.17438 22.7425 4.79614 23 5.44444 23H17.6667C18.315 23 18.9367 22.7425 19.3951 22.284C19.8536 21.8256 20.1111 21.2039 20.1111 20.5556V5.88889C20.1111 5.24058 19.8536 4.61883 19.3951 4.16041C18.9367 3.70198 18.315 3.44444 17.6667 3.44444H15.2222" stroke="#3D3D3D" stroke-width="2" stroke-linecap="round" stroke-linejoin="round"/>
<path d="M7.88892 3.44444C7.88892 2.79614 8.14646 2.17438 8.60488 1.71596C9.0633 1.25754 9.68505 1 10.3334 1H12.7778C13.4261 1 14.0479 1.25754 14.5063 1.71596C14.9647 2.17438 15.2222 2.79614 15.2222 3.44444C15.2222 4.09275 14.9647 4.71451 14.5063 5.17293C14.0479 5.63135 13.4261 5.88889 12.7778 5.88889H10.3334C9.68505 5.88889 9.0633 5.63135 8.60488 5.17293C8.14646 4.71451 7.88892 4.09275 7.88892 3.44444ZM7.88892 18.1111V12V18.1111ZM11.5556 18.1111V16.8889V18.1111ZM15.2222 18.1111V14.4444V18.1111Z" fill="white"/>
<path d="M7.88892 18.1111V12M11.5556 18.1111V16.8889M15.2222 18.1111V14.4444M7.88892 3.44444C7.88892 2.79614 8.14646 2.17438 8.60488 1.71596C9.0633 1.25754 9.68505 1 10.3334 1H12.7778C13.4261 1 14.0479 1.25754 14.5063 1.71596C14.9647 2.17438 15.2222 2.79614 15.2222 3.44444C15.2222 4.09275 14.9647 4.71451 14.5063 5.17293C14.0479 5.63135 13.4261 5.88889 12.7778 5.88889H10.3334C9.68505 5.88889 9.0633 5.63135 8.60488 5.17293C8.14646 4.71451 7.88892 4.09275 7.88892 3.44444Z" stroke="#3D3D3D" stroke-width="2" stroke-linecap="round" stroke-linejoin="round"/>
</svg>
