<svg xmlns="http://www.w3.org/2000/svg" width="30" height="30" viewBox="0 0 30 30" fill="none">
  <rect width="30" height="30" rx="8" fill="#0052CC"/>
  <path d="M20 15.8333H15.8334V20C15.8334 20.221 15.7456 20.433 15.5893 20.5892C15.433 20.7455 15.221 20.8333 15 20.8333C14.779 20.8333 14.567 20.7455 14.4108 20.5892C14.2545 20.433 14.1667 20.221 14.1667 20V15.8333H10C9.77901 15.8333 9.56705 15.7455 9.41076 15.5892C9.25448 15.433 9.16669 15.221 9.16669 15C9.16669 14.779 9.25448 14.567 9.41076 14.4107C9.56705 14.2545 9.77901 14.1667 10 14.1667H14.1667V9.99999C14.1667 9.77898 14.2545 9.56701 14.4108 9.41073C14.567 9.25445 14.779 9.16666 15 9.16666C15.221 9.16666 15.433 9.25445 15.5893 9.41073C15.7456 9.56701 15.8334 9.77898 15.8334 9.99999V14.1667H20C20.221 14.1667 20.433 14.2545 20.5893 14.4107C20.7456 14.567 20.8334 14.779 20.8334 15C20.8334 15.221 20.7456 15.433 20.5893 15.5892C20.433 15.7455 20.221 15.8333 20 15.8333Z" fill="white"/>
</svg>