<svg xmlns="http://www.w3.org/2000/svg" width="24" height="24" viewBox="0 0 24 24" fill="none">
  <path d="M21.375 18.4453H2.625C2.30138 18.4453 2.03906 18.7076 2.03906 19.0312C2.03906 19.3549 2.30138 19.6172 2.625 19.6172H21.375C21.6986 19.6172 21.9609 19.3549 21.9609 19.0312C21.9609 18.7076 21.6986 18.4453 21.375 18.4453ZM21.9609 4.96875C21.9609 5.29237 21.6986 5.55469 21.375 5.55469H2.625C2.30138 5.55469 2.03906 5.29237 2.03906 4.96875C2.03906 4.64513 2.30138 4.38281 2.625 4.38281H21.375C21.6986 4.38281 21.9609 4.64513 21.9609 4.96875ZM21.9609 12C21.9609 12.3236 21.6986 12.5859 21.375 12.5859H2.625C2.30138 12.5859 2.03906 12.3236 2.03906 12C2.03906 11.6764 2.30138 11.4141 2.625 11.4141H21.375C21.6986 11.4141 21.9609 11.6764 21.9609 12Z" fill="black"/>
</svg>