<svg xmlns="http://www.w3.org/2000/svg" width="25" height="24" viewBox="0 0 25 24" fill="none">
<g clip-path="url(#clip0_373_8298)">
<path d="M12.5 3C9.41 3 6.98 5.3475 6.64025 8.34375C5.98688 8.44944 5.37418 8.72962 4.86686 9.1547C4.35954 9.57977 3.97643 10.134 3.758 10.7587C1.913 11.2905 0.5 12.936 0.5 15C0.5 17.493 2.507 19.5 5 19.5H20C22.493 19.5 24.5 17.493 24.5 15C24.5 13.68 23.8587 12.498 22.9295 11.6715C22.7555 9.036 20.6532 6.933 18.008 6.7965C17.105 4.59975 15.0335 3 12.5 3ZM12.5 4.5C14.5715 4.5 16.2275 5.8275 16.8125 7.71L16.9775 8.25H17.75C19.8162 8.25 21.5 9.93375 21.5 12V12.375L21.8045 12.6097C22.172 12.8914 22.4706 13.253 22.6777 13.6671C22.8849 14.0812 22.9951 14.537 23 15C23 16.707 21.707 18 20 18H5C3.293 18 2 16.707 2 15C2 13.485 3.0875 12.309 4.46 12.0705L4.95275 11.9767L5.0465 11.4832C5.2715 10.473 6.167 9.75 7.25 9.75H8V9C8 6.4725 9.9725 4.5 12.5 4.5ZM12.5 8.6955L11.96 9.21075L8.96 12.2108L10.04 13.2908L11.75 11.5778V16.5H13.25V11.5778L14.96 13.2892L16.04 12.2092L13.04 9.20925L12.5 8.6955Z" fill="#909090"/>
</g>
<defs>
<clipPath id="clip0_373_8298">
<rect width="24" height="24" fill="white" transform="translate(0.5)"/>
</clipPath>
</defs>
</svg>