<svg width="24" height="17" viewBox="0 0 24 17" fill="none" xmlns="http://www.w3.org/2000/svg">
<path d="M13.2127 7.26466C13.9011 6.30276 14.2713 5.14954 14.2713 3.96667C14.2713 2.78379 13.9011 1.63058 13.2127 0.668676C13.8573 0.229546 14.6201 -0.00361676 15.4 1.1185e-05C16.4521 1.1185e-05 17.461 0.417926 18.2049 1.16182C18.9488 1.90571 19.3667 2.91464 19.3667 3.96667C19.3667 5.01869 18.9488 6.02763 18.2049 6.77152C17.461 7.51541 16.4521 7.93332 15.4 7.93332C14.6201 7.93695 13.8573 7.70379 13.2127 7.26466ZM4.63341 3.96667C4.6334 3.18214 4.86604 2.41523 5.30191 1.76291C5.73777 1.1106 6.35728 0.602182 7.08209 0.301955C7.8069 0.00172829 8.60446 -0.0768248 9.37392 0.0762296C10.1434 0.229284 10.8502 0.607071 11.4049 1.16182C11.9597 1.71657 12.3374 2.42336 12.4905 3.19281C12.6436 3.96227 12.565 4.75983 12.2648 5.48464C11.9645 6.20945 11.4561 6.82896 10.8038 7.26482C10.1515 7.70068 9.38459 7.93332 8.60006 7.93332C7.54804 7.93332 6.5391 7.51541 5.79521 6.77152C5.05132 6.02763 4.63341 5.01869 4.63341 3.96667ZM6.90007 3.96667C6.90007 4.3029 6.99977 4.63157 7.18657 4.91113C7.37337 5.1907 7.63887 5.40859 7.9495 5.53726C8.26014 5.66593 8.60195 5.69959 8.93172 5.634C9.26148 5.5684 9.56439 5.4065 9.80214 5.16875C10.0399 4.931 10.2018 4.62809 10.2674 4.29832C10.333 3.96855 10.2993 3.62674 10.1707 3.31611C10.042 3.00547 9.82409 2.73997 9.54453 2.55317C9.26497 2.36638 8.93629 2.26667 8.60006 2.26667C8.1492 2.26667 7.71679 2.44578 7.39798 2.76459C7.07917 3.0834 6.90007 3.5158 6.90007 3.96667ZM16.5334 14.7333V17H0.666748V14.7333C0.666748 14.7333 0.666748 10.2 8.60006 10.2C16.5334 10.2 16.5334 14.7333 16.5334 14.7333ZM14.2667 14.7333C14.108 13.8493 12.7594 12.4666 8.60006 12.4666C4.44074 12.4666 3.01274 13.9513 2.93341 14.7333M16.4767 10.2C17.1713 10.7403 17.7393 11.4261 18.1406 12.2092C18.542 12.9924 18.7671 13.8539 18.8 14.7333V17H23.3334V14.7333C23.3334 14.7333 23.3334 10.6193 16.4654 10.2H16.4767Z" fill="#3D3D3D"/>
</svg>
