<svg xmlns="http://www.w3.org/2000/svg" width="24" height="24" viewBox="0 0 24 24" fill="none">
<rect width="24" height="24" rx="12" fill="#E6EEFA"/>
<path fill-rule="evenodd" clip-rule="evenodd" d="M6.71747 12.3407C7.47609 10.3974 9.26153 9 11.4998 9C13.738 9 15.5235 10.3974 16.2825 12.3407C16.3225 12.4431 16.3225 12.5569 16.2825 12.6593C15.5235 14.6026 13.738 16 11.4998 16C9.26153 16 7.47609 14.6026 6.71747 12.6593C6.67745 12.5569 6.67745 12.4431 6.71747 12.3407ZM11.4998 13.8125C11.8479 13.8125 12.1817 13.6742 12.4279 13.4281C12.674 13.1819 12.8123 12.8481 12.8123 12.5C12.8123 12.1519 12.674 11.8181 12.4279 11.5719C12.1817 11.3258 11.8479 11.1875 11.4998 11.1875C11.1517 11.1875 10.8178 11.3258 10.5717 11.5719C10.3256 11.8181 10.1873 12.1519 10.1873 12.5C10.1873 12.8481 10.3256 13.1819 10.5717 13.4281C10.8178 13.6742 11.1517 13.8125 11.4998 13.8125Z" fill="#0052CC"/>
</svg>